HIERARCHY
ROOT hip
{
	OFFSET 0.000000 0.000000 0.000000 
	CHANNELS 6 Xposition Yposition Zposition Xrotation Zrotation Yrotation
	JOINT abdomen
	{
		OFFSET 0.000000 3.402643 0.000000 
		CHANNELS 3 Xrotation Zrotation Yrotation
		JOINT chest
		{
			OFFSET 0.000000 8.438565 -0.680529 
			CHANNELS 3 Xrotation Zrotation Yrotation
			JOINT neck
			{
				OFFSET 0.000000 10.207942 -0.272212 
				CHANNELS 3 Xrotation Zrotation Yrotation
				JOINT head
				{
					OFFSET 0.000000 3.130431 0.000000 
					CHANNELS 3 Xrotation Zrotation Yrotation
					End Site
					{
						OFFSET 0.000000 3.130435 0.000000 
					}
				}
			}
			JOINT lCollar
			{
				OFFSET 3.470700 6.669187 -0.816635 
				CHANNELS 3 Yrotation Zrotation Xrotation
				JOINT lShldr
				{
					OFFSET 3.198488 0.000000 0.000000 
					CHANNELS 3 Zrotation Yrotation Xrotation
					JOINT lForeArm
					{
						OFFSET 10.139888 0.000000 0.000000 
						CHANNELS 3 Yrotation Zrotation Xrotation
						JOINT lHand
						{
							OFFSET 8.370511 0.000000 0.000000 
							CHANNELS 3 Zrotation Yrotation Xrotation
							End Site
							{
								OFFSET 4.083176 0.000000 0.000000 
							}
						}
					}
				}
			}
			JOINT rCollar
			{
				OFFSET -3.470700 6.669187 -0.816635 
				CHANNELS 3 Yrotation Zrotation Xrotation
				JOINT rShldr
				{
					OFFSET -3.198488 0.000000 0.000000 
					CHANNELS 3 Zrotation Yrotation Xrotation
					JOINT rForeArm
					{
						OFFSET -10.139888 0.000000 0.000000 
						CHANNELS 3 Yrotation Zrotation Xrotation
						JOINT rHand
						{
							OFFSET -8.370511 0.000000 0.000000 
							CHANNELS 3 Zrotation Yrotation Xrotation
							End Site
							{
								OFFSET -4.083176 0.000000 0.000000 
							}
						}
					}
				}
			}
		}
	}
	JOINT lThigh
	{
		OFFSET 5.308129 -1.633274 1.361059 
		CHANNELS 3 Xrotation Zrotation Yrotation
		JOINT lShin
		{
			OFFSET -2.041588 -20.007561 0.000000 
			CHANNELS 3 Xrotation Zrotation Yrotation
			JOINT lFoot
			{
				OFFSET 0.000000 -19.190928 -1.224953 
				CHANNELS 3 Xrotation Yrotation Zrotation
				End Site
				{
					OFFSET 0.000000 -2.449906 4.627600 
				}
			}
		}
	}
	JOINT rThigh
	{
		OFFSET -5.308129 -1.633274 1.361059 
		CHANNELS 3 Xrotation Zrotation Yrotation
		JOINT rShin
		{
			OFFSET 2.041588 -20.007561 0.000000 
			CHANNELS 3 Xrotation Zrotation Yrotation
			JOINT rFoot
			{
				OFFSET 0.000000 -19.190928 -1.224953 
				CHANNELS 3 Xrotation Yrotation Zrotation
				End Site
				{
					OFFSET 0.000000 -2.449906 4.627600 
				}
			}
		}
	}
}
MOTION
Frames: 10
Frame Time: 0.016667
-6.283493 49.551468 -6.302222 -3.612675 1.295810 3.907458 0.000000 0.000000 0.000000 2.240995 3.562679 -1.809823 5.439129 3.064515 -2.014584 15.052671 -1.064366 -0.732658 -4.541955 9.239651 3.010001 -83.095474 10.141108 10.960161 -43.299160 -6.103338 36.269920 -0.715291 3.390558 -3.503020 2.382857 11.417701 2.227054 50.359730 -9.994883 19.774361 35.209282 9.840818 25.226538 -2.348425 -5.422128 -3.496224 -5.310594 13.341973 10.159715 28.686487 -1.143316 9.637601 -2.410359 -0.033877 2.807910 6.686172 -2.977231 -7.060259 7.173507 4.503087 -22.463533 -8.947896 0.273644 -3.573653 
-6.355844 49.575428 -6.294973 -3.801827 1.421953 4.200589 0.000000 0.000000 0.000000 2.195226 3.777098 -1.957244 5.645286 2.957398 -1.877037 14.855698 -0.947190 -0.722880 -5.367540 8.479601 3.038829 -82.023994 9.284151 11.194203 -43.753441 -6.159476 36.394150 -2.299250 1.487370 -3.430105 2.816698 12.051929 2.092481 49.132339 -10.036857 19.442307 36.340096 9.442592 24.794310 2.764337 -2.877465 -3.488124 -4.949099 12.949960 10.197758 28.056475 -1.425202 10.793024 -2.628704 -0.048746 3.056711 7.065695 -2.957105 -7.160144 6.851940 4.570074 -22.583385 -8.854969 0.254078 -3.614224 
-6.379801 49.583782 -6.240205 -3.742838 1.772278 4.328326 0.000000 0.000000 0.000000 1.968624 3.815768 -2.113796 5.474689 2.674210 -1.964853 15.278404 -1.152250 -0.732667 -5.070236 7.421518 2.767573 -80.225288 8.206271 12.178891 -44.564941 -6.491560 36.477024 -3.880256 0.449150 -3.348370 2.886711 12.256458 1.864886 48.316021 -10.396922 19.273264 38.384319 9.239495 22.067585 -4.815661 -6.210807 -3.425893 -4.627241 12.365294 10.078560 27.402569 -1.630019 11.346956 -2.667730 -0.052325 3.150463 7.014067 -3.219679 -7.255504 7.036962 4.464635 -22.632505 -9.003416 0.283032 -3.645164 
-6.405529 49.602459 -6.221819 -3.653606 1.917577 4.621777 0.000000 0.000000 0.000000 1.734674 3.854505 -2.231370 5.326638 2.566666 -2.081926 15.924248 -1.191298 -0.771724 -5.717713 6.682638 2.593429 -79.513733 8.053981 11.753287 -45.384361 -6.174462 36.885674 -4.308109 -0.268472 -3.299720 2.601947 11.935393 1.683501 48.734871 -10.052942 19.211334 38.657528 9.052092 21.649746 -5.494492 -5.982277 -3.419384 -4.559001 12.209194 10.017916 27.070385 -1.702944 11.232362 -2.961331 -0.070079 3.251633 6.929344 -3.289935 -7.297351 7.115094 4.474178 -22.908752 -9.165581 0.260918 -3.689506 
-6.420182 49.605705 -6.248730 -3.678962 2.100964 5.120898 0.000000 0.000000 0.000000 1.631232 3.863644 -2.456126 5.186112 2.331965 -2.384414 17.225693 -1.152193 -0.927939 -5.718008 6.116989 2.473078 -78.787262 7.232189 11.414906 -45.671875 -5.816395 39.082020 -5.237522 -0.437115 -3.264773 2.386332 11.847318 1.603410 48.928005 -9.869423 19.050903 38.993599 8.878129 21.645021 -5.928342 -5.619992 -3.425946 -4.402501 12.120526 9.952716 26.643862 -1.689618 10.363440 -2.948785 -0.074595 3.133658 6.890666 -3.396830 -7.411211 7.311456 4.456933 -23.499176 -9.216047 0.276553 -3.693395 
-6.413572 49.581451 -6.259604 -3.560041 2.206881 5.424163 0.000000 0.000000 0.000000 1.425622 3.864028 -2.319718 5.114823 2.107444 -2.452745 18.074047 -0.810360 -1.230622 -5.807335 5.446970 2.283999 -78.514511 6.864273 11.077287 -46.269680 -5.758255 36.366138 -1.383807 0.074077 -3.410966 2.455185 11.733266 1.423487 49.136868 -9.961150 19.096743 39.034817 8.886502 21.646406 -5.871108 -5.605798 -3.423073 -4.344242 12.267668 9.969535 26.587107 -1.704278 8.473512 -3.118741 -0.068693 2.926682 6.640074 -3.466743 -7.449143 7.612768 4.444453 -24.119781 -8.892723 0.273079 -3.670231 
-6.373857 49.588142 -6.263471 -3.702918 2.360642 5.864441 0.000000 0.000000 0.000000 1.475092 3.707671 -2.406785 5.049075 2.038691 -2.735770 19.195616 -0.644334 -1.416146 -5.563953 5.201619 2.293704 -78.767059 6.179543 10.424564 -46.318096 -5.466466 35.766396 -0.416868 0.424978 -3.440527 2.554999 11.795765 1.454008 49.316101 -9.962980 19.146847 39.009789 8.944378 21.766415 -5.848145 -5.497444 -3.437509 -3.993581 12.398490 10.077539 26.356092 -1.634865 6.495224 -3.413314 -0.066583 2.750704 6.759893 -3.590029 -7.549472 7.782360 4.409040 -24.177187 -8.617260 0.250878 -3.634832 
-6.269760 49.549690 -6.312867 -3.439804 2.250506 6.626318 0.000000 0.000000 0.000000 1.270508 3.834346 -2.465874 4.770827 2.154768 -3.234540 20.270626 -1.181084 -1.758244 -5.667577 5.018786 2.117271 -78.969620 5.767823 9.997252 -46.696358 -5.253696 34.353405 0.058029 0.658994 -3.456133 2.571168 12.011125 1.255030 49.368965 -10.207305 19.228588 39.286335 8.932868 21.860472 -5.144842 -6.087048 -3.434082 -4.412252 12.744496 9.961312 26.541527 -1.416061 3.679949 -3.680540 -0.052026 2.463038 6.431475 -3.572078 -7.598493 7.907040 4.521997 -25.009159 -8.822718 0.274200 -3.690511 
-6.075319 49.523678 -6.357300 -3.886625 2.584925 7.537446 0.000000 0.000000 0.000000 1.629670 3.736501 -2.563970 5.103214 1.851495 -3.751826 21.487783 -1.073379 -2.266142 -6.133326 4.652502 2.465571 -79.443199 5.705343 9.088339 -47.251072 -4.863575 32.893322 0.173762 0.362698 -3.455869 2.333495 11.914708 1.615023 49.611115 -10.199028 19.572311 38.774620 9.352215 20.725296 -6.015218 -4.900253 -3.449648 -4.080850 12.541162 9.664670 26.661407 -0.923322 0.997582 -4.680784 -0.088690 2.476427 6.872210 -4.041428 -8.096510 8.199771 4.668075 -25.571800 -9.037714 0.275505 -3.713637 
-5.919308 49.454395 -6.392855 -4.059470 2.590328 8.221654 0.000000 0.000000 0.000000 1.729806 3.755721 -2.661416 5.357512 1.636851 -3.888199 22.672367 -0.595141 -2.490404 -5.726480 4.840281 2.526305 -80.363960 5.651464 8.366912 -47.559864 -4.544811 31.996109 -0.123671 0.266483 -3.447779 2.298106 11.829853 1.703001 49.780373 -10.453302 20.015259 38.963524 9.529515 20.991131 -5.833094 -5.584082 -3.428990 -3.750111 12.879117 9.689632 26.499912 -0.618199 -2.411850 -5.576276 -0.174272 2.382069 6.666885 -4.187912 -8.289478 9.120136 4.763219 -26.105513 -9.298031 0.287992 -3.656436 
